<svg width="71" height="70" viewBox="0 0 71 70" fill="none" xmlns="http://www.w3.org/2000/svg">
<path d="M35.2798 16.8399C25.2707 16.8399 17.1973 24.7528 17.1973 34.5629C17.1973 44.373 25.2707 52.2858 35.2798 52.2858C45.2889 52.2858 53.3623 44.373 53.3623 34.5629C53.3623 24.7528 45.2889 16.8399 35.2798 16.8399ZM35.2798 46.0851C28.8116 46.0851 23.5238 40.9178 23.5238 34.5629C23.5238 28.2079 28.7959 23.0406 35.2798 23.0406C41.7637 23.0406 47.0358 28.2079 47.0358 34.5629C47.0358 40.9178 41.7479 46.0851 35.2798 46.0851ZM58.3196 16.1149C58.3196 18.4132 56.4311 20.2488 54.102 20.2488C51.7571 20.2488 49.8843 18.3978 49.8843 16.1149C49.8843 13.8321 51.7728 11.9811 54.102 11.9811C56.4311 11.9811 58.3196 13.8321 58.3196 16.1149ZM70.296 20.3105C70.0284 14.773 68.7379 9.86794 64.599 5.82667C60.4757 1.78541 55.4711 0.520583 49.8213 0.242939C43.9984 -0.0809796 26.5454 -0.0809796 20.7225 0.242939C15.0884 0.505158 10.0839 1.76998 5.94488 5.81125C1.80589 9.85252 0.531144 14.7576 0.247867 20.295C-0.0826225 26.0022 -0.0826225 43.1081 0.247867 48.8153C0.515407 54.3527 1.80589 59.2578 5.94488 63.299C10.0839 67.3403 15.0727 68.6051 20.7225 68.8828C26.5454 69.2067 43.9984 69.2067 49.8213 68.8828C55.4711 68.6206 60.4757 67.3557 64.599 63.299C68.7222 59.2578 70.0127 54.3527 70.296 48.8153C70.6264 43.1081 70.6264 26.0176 70.296 20.3105ZM62.7734 54.9389C61.5459 57.9621 59.1695 60.2912 56.0692 61.5098C51.4266 63.3145 40.4102 62.898 35.2798 62.898C30.1493 62.898 19.1173 63.299 14.4904 61.5098C11.4058 60.3066 9.02945 57.9775 7.78618 54.9389C5.94488 50.3886 6.3698 39.5913 6.3698 34.5629C6.3698 29.5344 5.96062 18.7217 7.78618 14.1869C9.01372 11.1636 11.3901 8.83449 14.4904 7.61594C19.133 5.81125 30.1493 6.22772 35.2798 6.22772C40.4102 6.22772 51.4423 5.82667 56.0692 7.61594C59.1537 8.81906 61.5301 11.1482 62.7734 14.1869C64.6147 18.7371 64.1898 29.5344 64.1898 34.5629C64.1898 39.5913 64.6147 50.404 62.7734 54.9389Z" fill="black"/>
</svg>
