<svg width="71" height="70" viewBox="0 0 71 70" fill="none" xmlns="http://www.w3.org/2000/svg">
<path d="M59.978 10.0448C53.3803 3.56429 44.5938 0 35.2562 0C15.9826 0 0.299181 15.3681 0.299181 34.2543C0.299181 40.2873 1.90531 46.1815 4.96011 51.3814L0 69.1257L18.5335 64.3579C23.6353 67.089 29.3828 68.5239 35.2404 68.5239H35.2562C54.514 68.5239 70.5438 53.1558 70.5438 34.2697C70.5438 25.1198 66.5757 16.5254 59.978 10.0448ZM35.2562 62.7532C30.0284 62.7532 24.9108 61.3799 20.4546 58.7877L19.3996 58.1705L8.40857 60.9942L11.3374 50.4865L10.6446 49.4064C7.73148 44.87 6.20408 39.6393 6.20408 34.2543C6.20408 18.5621 19.2421 5.78619 35.2719 5.78619C43.0349 5.78619 54.4983 13.0691 59.978 18.4541C65.4577 23.8391 64.6547 26.6628 64.6389 34.2697C64.6389 49.9773 51.2702 62.7532 35.2562 62.7532ZM51.1915 41.4291C50.3255 40.9971 46.0267 38.9295 45.2236 38.6518C44.4206 38.3586 43.838 38.2197 43.2553 39.0838C42.6727 39.9479 41.0036 41.8612 40.484 42.4475C39.9801 43.0184 39.4605 43.0956 38.5944 42.6635C33.4611 40.1485 30.0914 38.1734 26.7059 32.4798C25.8083 30.9677 27.6034 31.0757 29.2725 27.8046C29.556 27.2337 29.4143 26.7399 29.1938 26.3079C28.9734 25.8759 27.2255 21.6635 26.5012 19.9508C25.7926 18.2844 25.0683 18.5158 24.5329 18.485C24.029 18.4541 23.4464 18.4541 22.8638 18.4541C22.2811 18.4541 21.3364 18.6701 20.5333 19.5188C19.7302 20.3828 17.4785 22.4504 17.4785 26.6628C17.4785 30.8751 20.612 34.9486 21.0372 35.5195C21.4781 36.0904 27.194 44.7311 35.9648 48.4497C41.5075 50.7951 43.6805 50.9956 46.4519 50.5945C48.1367 50.3476 51.6167 48.5269 52.341 46.521C53.0653 44.5151 53.0653 42.8024 52.8449 42.4475C52.6402 42.0618 52.0576 41.8457 51.1915 41.4291Z" fill="black"/>
</svg>
