<svg width="71" height="70" viewBox="0 0 71 70" fill="none" xmlns="http://www.w3.org/2000/svg">
<path d="M69.0697 10.8158C68.2584 6.55848 65.868 3.20552 62.8329 2.06765C57.3316 0 35.2719 0 35.2719 0C35.2719 0 13.2124 0 7.7109 2.06765C4.6758 3.2057 2.28539 6.55848 1.47408 10.8158C0 18.5325 0 34.6327 0 34.6327C0 34.6327 0 50.7329 1.47408 58.4496C2.28539 62.7069 4.6758 65.9202 7.7109 67.0581C13.2124 69.1257 35.2719 69.1257 35.2719 69.1257C35.2719 69.1257 57.3315 69.1257 62.8329 67.0581C65.868 65.9202 68.2584 62.7069 69.0697 58.4496C70.5438 50.7329 70.5438 34.6327 70.5438 34.6327C70.5438 34.6327 70.5438 18.5325 69.0697 10.8158ZM28.0572 49.2505V20.015L46.4947 34.6331L28.0572 49.2505Z" fill="black"/>
</svg>
